<svg width="24" height="24" viewBox="0 0 24 24" fill="none" xmlns="http://www.w3.org/2000/svg">
<path fill-rule="evenodd" clip-rule="evenodd" d="M4 2C2.89543 2 2 2.89543 2 4V20C2 21.1046 2.89543 22 4 22H20C21.1046 22 22 21.1046 22 20V4C22 2.89543 21.1046 2 20 2H4ZM14.2526 6C15.4104 6.1781 16.5178 6.49087 17.5535 6.92125C19.3644 9.32307 20.2642 12.032 19.932 15.1564C18.5464 16.0765 17.2024 16.6347 15.881 17C15.5538 16.6016 15.2644 16.1769 15.014 15.7318C15.4909 15.5708 15.949 15.3721 16.3819 15.1404C16.2686 15.0651 16.1566 14.9863 16.0472 14.9053C13.4459 15.9989 10.5855 15.9989 7.95279 14.9053C7.84457 14.9863 7.73256 15.0651 7.61805 15.1404C8.04969 15.371 8.5065 15.5696 8.98345 15.7306C8.73302 16.1769 8.44233 16.6005 8.11638 16.9989C6.79627 16.6336 5.4535 16.0753 4.06794 15.1564C3.78479 12.4612 4.35109 9.72718 6.44013 6.92353C7.47584 6.49202 8.58454 6.1781 9.74357 6C9.88704 6.22832 10.0569 6.5354 10.1714 6.77969C11.3796 6.61531 12.599 6.61531 13.8298 6.77969C13.9443 6.5354 14.1104 6.22832 14.2526 6ZM7.9037 12.0457C7.9037 12.8436 8.55181 13.4989 9.34212 13.4989C10.1463 13.4989 10.7818 12.8436 10.7805 12.0457C10.7944 11.2466 10.1463 10.5913 9.34212 10.5913C8.53797 10.5913 7.9037 11.2477 7.9037 12.0457ZM13.2194 12.0457C13.2194 12.8436 13.8675 13.4989 14.6578 13.4989C15.462 13.4989 16.0962 12.8436 16.0962 12.0457C16.1101 11.2466 15.462 10.5913 14.6578 10.5913C13.8537 10.5913 13.2194 11.2477 13.2194 12.0457Z" fill="#0057FA"/>
</svg>
